<?xml version="1.0" encoding="utf-8"?>
<svg viewBox="-7.45 -98.389 775.534 804.341" width="775.534" height="804.341" xmlns="http://www.w3.org/2000/svg">
  <defs>
    <style type="text/css">
	.st0{fill:#FFFFFF;}
	.st1{fill:#036994;}
	.st2{fill:none;stroke:#036994;stroke-width:14.4734;stroke-linecap:round;stroke-miterlimit:10;}
	.st3{fill:#FFFFFF;stroke:#036994;stroke-width:14.4734;stroke-linecap:round;stroke-linejoin:round;stroke-miterlimit:10;}
</style>
  </defs>
  <g transform="matrix(0.517826, 0, 0, 0.517826, 249.026962, 39.535862)">
    <path class="st0" d="M 489.149 425.549 C 489.149 425.549 494.697 453.121 515.795 454.97 C 536.893 456.82 493.483 491.847 455.045 453.121 C 455.045 453.121 434.93 501.153 403.602 459.652 C 403.602 459.652 376.03 504.564 350.02 460.287 C 350.02 460.287 323.084 499.94 298.923 462.484 C 298.923 462.484 266.38 498.437 238.809 459.074 C 238.809 459.074 271.004 454.449 273.49 435.548 C 275.975 416.647 272.565 274.455 272.565 274.455 C 272.565 274.455 285.571 172.204 375.741 166.944 C 465.912 161.684 484.813 258.964 484.813 258.964 L 489.149 425.549 Z"/>
    <path class="st1" d="M 366.146 164.112 C 390.25 160.643 415.336 166.308 436.144 179.602 C 454.062 190.932 468.802 207.751 478.571 227.288 C 487.414 244.861 492.212 264.629 492.674 284.512 C 492.732 285.611 492.905 286.709 492.905 287.749 L 492.905 415.26 C 492.905 416.532 492.848 417.803 493.021 419.075 C 493.31 421.329 493.021 423.584 493.483 425.838 C 494.119 428.901 494.928 432.023 496.432 434.739 C 500.593 442.947 508.57 448.496 517.009 450.346 C 518.743 450.75 520.766 450.693 522.095 452.195 C 524.176 454.218 523.945 458.264 521.575 459.941 C 520.419 460.635 519.725 461.964 518.801 462.946 C 511.46 471.675 500.593 476.704 489.668 477.166 C 477.299 477.975 464.641 472.946 456.144 463.293 C 454.757 465.663 453.253 467.975 451.346 470.056 C 449.497 472.253 447.242 473.929 445.046 475.547 C 443.312 476.414 441.693 477.57 439.844 478.264 C 434.757 480.519 429.092 480.981 423.659 480.403 C 415.856 479.362 408.631 475.2 403.371 469.016 C 397.474 478.495 386.955 484.506 376.204 484.275 C 373.14 484.449 370.135 483.639 367.244 483.004 C 360.251 480.865 354.008 476.125 349.789 469.883 C 345.28 476.183 338.575 480.519 331.35 482.252 C 325.743 483.524 319.79 483.351 314.298 481.443 C 309.905 479.998 305.917 477.513 302.507 474.276 C 301.35 473.293 300.484 471.906 299.327 470.866 C 292.276 477.455 283.027 481.385 273.605 481.906 C 262.97 482.657 252.045 479.246 243.78 472.021 C 241.295 469.94 239.156 467.513 237.191 464.854 C 236.439 463.814 236.266 462.484 235.514 461.386 C 234.069 459.19 234.763 455.953 236.844 454.507 C 238.231 453.409 240.081 453.64 241.699 453.409 C 247.826 452.542 253.722 449.768 258.404 445.548 C 263.952 440.519 267.767 433.005 267.826 425.202 C 268.114 417.861 267.883 410.52 267.941 403.18 L 267.941 288.154 C 268.057 286.535 267.652 284.859 267.71 283.241 C 268.346 265.727 272.277 248.329 279.386 232.491 C 287.304 214.803 299.154 199.081 313.836 187.232 C 329.153 174.863 347.245 166.713 366.146 164.112 M 374.47 173.475 C 359.673 174.4 345.106 179.025 332.159 186.654 C 319.79 193.937 308.864 204.053 300.253 215.96 C 286.785 234.399 278.924 257.288 277.652 280.582 C 277.825 285.38 277.71 290.235 277.767 295.033 L 277.767 381.099 C 277.71 395.896 277.883 410.694 277.71 425.433 C 277.479 432.196 275.513 438.843 271.987 444.508 C 266.612 453.467 257.71 459.709 248.115 462.369 C 251.179 465.316 254.704 467.686 258.578 469.247 C 263.606 471.385 269.155 471.963 274.531 471.501 C 281.929 470.866 289.096 467.455 294.415 461.964 C 295.339 461.155 295.224 459.709 296.033 458.785 C 297.478 456.762 300.484 456.241 302.449 457.686 C 303.663 458.495 304.24 459.999 304.992 461.213 C 306.032 462.831 307.188 464.392 308.46 465.779 C 311.466 469.074 315.454 471.212 319.674 472.194 C 321.87 472.715 324.124 472.658 326.321 472.599 C 334.529 472.079 342.159 466.415 345.396 458.38 C 346.667 454.68 351.927 453.698 354.297 456.646 C 355.28 457.802 355.511 459.421 356.262 460.808 C 359.095 466.646 364.181 471.154 370.076 473.004 C 372.504 473.582 374.99 474.102 377.475 473.929 C 385.567 473.755 393.371 468.611 396.955 460.923 C 397.879 459.305 398.111 457.282 399.266 455.779 C 400.827 453.698 404.064 453.409 405.972 455.085 C 406.954 455.837 407.301 457.167 408.053 458.091 C 408.862 459.131 409.498 460.287 410.307 461.328 C 414.7 466.935 421.405 470.576 428.341 470.287 C 431.983 470.345 435.739 469.478 438.919 467.513 C 442.271 465.606 445.277 462.831 447.415 459.421 C 448.456 457.802 448.976 455.894 449.901 454.218 C 450.537 453.236 450.247 451.907 450.826 450.924 C 451.808 448.669 454.409 447.514 456.606 448.38 C 458.398 448.959 459.381 450.75 460.536 452.253 C 462.502 455.548 465.16 458.38 468.166 460.692 C 478.05 468.206 491.808 469.189 502.732 463.64 C 505.275 462.369 507.587 460.577 509.841 458.727 C 503.888 456.472 498.512 452.774 494.062 448.033 C 490.189 443.756 487.125 438.496 485.565 432.774 C 484.466 429.306 484.178 425.607 483.831 421.965 L 483.831 290.871 C 483.831 289.773 483.599 288.674 483.599 287.576 C 483.542 276.71 482.155 265.843 479.322 255.381 C 473.368 232.78 460.768 212.145 443.6 197.289 C 435.624 190.527 426.723 184.747 417.185 180.932 C 403.428 175.036 388.863 172.551 374.47 173.475 L 374.47 173.475 Z"/>
    <path class="st1" d="M 423.313 284.397 C 417.821 286.304 411.752 286.594 406.087 285.033 C 399.382 283.241 393.371 279.021 389.498 273.241 C 385.857 267.923 384.065 261.392 384.47 254.976 C 384.816 248.617 387.359 242.375 391.579 237.52 C 391.868 237.172 392.273 237 392.677 236.884 C 402.33 234.225 411.983 231.508 421.636 228.792 C 422.387 228.561 423.139 229.023 423.89 229.254 C 430.826 231.798 436.664 237.057 439.901 243.647 C 442.329 248.56 443.369 254.167 442.791 259.6 C 442.155 266.016 439.266 272.259 434.757 276.941 C 431.636 280.351 427.647 282.894 423.313 284.397 Z"/>
    <path class="st1" d="M 341.696 285.842 C 334.991 285.149 328.633 282.084 323.893 277.229 C 316.841 270.12 313.836 259.253 316.437 249.543 C 318.807 239.89 326.494 231.682 336.031 228.849 C 345.915 231.335 355.742 234.109 365.626 236.71 C 366.551 236.826 367.071 237.693 367.591 238.329 C 370.424 241.855 372.447 245.959 373.372 250.409 C 374.759 256.363 374.123 262.837 371.637 268.444 C 369.21 274.108 364.933 278.906 359.614 281.969 C 354.297 285.149 347.881 286.535 341.696 285.842 L 341.696 285.842 Z"/>
    <path class="st2" d="M 331.639 312.315 C 331.639 312.315 376.724 333.239 425.971 312.315"/>
    <path class="st3" d="M 254.473 360.637 C 254.473 360.637 236.786 349.944 221.353 366.649 C 212.625 378.556 210.313 391.85 210.313 391.85 L 223.896 383.816 L 226.151 399.018 L 236.728 390.348 L 242.739 402.544 C 242.739 402.544 248.346 382.834 253.722 384.221 C 259.155 385.55 262.566 367.689 254.473 360.637 Z"/>
    <path class="st3" d="M 542.499 337.748 C 542.499 337.748 533.309 318.038 518.685 319.945 C 504.003 321.91 513.252 331.101 513.252 331.101 C 513.252 331.101 498.917 334.569 507.587 343.008 C 516.257 351.447 497.761 346.071 504.755 353.239 C 511.749 360.406 515.853 366.707 528.454 364.915 C 528.395 364.973 549.205 360.175 542.499 337.748 L 542.499 337.748 Z"/>
    <path class="st1" d="M 597.122 243.589 C 602.209 230.41 610.358 212.896 610.417 212.723 C 611.226 210.931 610.474 208.85 608.682 208.041 C 606.89 207.232 604.81 207.983 604.001 209.774 C 603.943 209.891 600.012 218.33 595.909 227.924 L 589.955 216.249 C 589.088 214.515 586.949 213.821 585.215 214.688 C 583.481 215.555 582.787 217.694 583.654 219.427 L 592.151 236.075 C 592.209 236.19 592.267 236.306 592.382 236.422 C 591.747 237.982 591.111 239.543 590.533 241.046 C 586.891 250.467 585.966 256.478 585.793 259.947 L 566.776 281.911 L 564.233 266.941 C 563.886 265.034 562.036 263.704 560.129 264.051 C 558.221 264.398 556.892 266.189 557.239 268.154 L 560.765 288.848 L 531.979 322.141 C 531.344 322.893 531.055 323.818 531.113 324.8 C 531.228 325.783 531.691 326.65 532.442 327.228 L 536.315 330.292 C 537.066 330.87 537.991 331.158 538.916 331.043 C 539.84 330.927 540.708 330.465 541.285 329.714 L 591.053 265.958 L 609.954 256.537 C 611.688 255.669 612.44 253.531 611.572 251.797 C 610.705 250.062 608.567 249.312 606.833 250.178 L 593.712 256.709 L 593.307 256.421 C 593.827 253.473 594.926 249.253 597.122 243.589 L 597.122 243.589 Z"/>
    <path class="st1" d="M 507.645 356.302 L 501.402 364.915 C 500.766 365.666 500.478 366.591 500.535 367.574 C 500.651 368.557 501.113 369.423 501.865 370.001 L 505.738 373.065 C 506.489 373.643 507.414 373.932 508.339 373.816 C 509.263 373.7 510.131 373.238 510.709 372.487 L 518.685 362.314 L 511.98 362.314 L 507.645 356.302 Z"/>
    <path d="M 287.95 1211.306 L 177.058 1211.306 L 177.058 639.845 C 108.385 629.029 41.472 597.199 -13.974 541.752 C -102.032 453.696 -136.423 325.348 -104.192 205.059 C -34.741 -54.13 289.242 -140.939 478.982 48.799 C 567.039 136.855 601.43 265.203 569.199 385.493 C 530.965 528.176 415.595 618.62 287.95 639.446 Z M 299.604 545.698 C 492.377 494.044 556.944 253.076 415.825 111.955 C 350.33 46.459 254.87 20.881 165.402 44.854 C -27.372 96.507 -91.942 337.478 49.183 478.596 C 114.678 544.092 210.137 569.668 299.604 545.698 Z" style="fill: rgb(216, 216, 216);" transform="matrix(0.707107, 0.707107, -0.707107, 0.707107, 477.441416, 5.150509)"/>
    <path d="M 268.2 1135.924 L 157.307 1135.924 L 157.307 564.465 C 88.635 553.649 21.723 521.818 -33.723 466.372 C -121.781 378.315 -156.172 249.968 -123.942 129.679 C -54.492 -129.51 269.492 -216.319 459.231 -26.583 C 547.289 61.474 581.679 189.823 549.449 310.113 C 511.215 452.795 395.845 543.239 268.2 564.064 Z M 279.855 470.316 C 472.629 418.663 537.195 177.696 396.076 36.574 C 330.579 -28.923 235.121 -54.5 145.653 -30.527 C -47.123 21.126 -111.691 262.097 29.432 403.216 C 94.929 468.712 190.387 494.288 279.855 470.316 Z" style="fill: rgb(48, 48, 48);" transform="matrix(0.707107, 0.707107, -0.707107, 0.707107, 418.354135, -2.962872)"/>
  </g>
</svg>